# xmcd
#
# Track frame offsets:
#	150
#	15118
#	27639
#	42121
#	59152
#	76097
#	89195
#	103496
#	119357
#	131984
#	152114
#	170695
#	185260
#	200433
#	214827
#	230306
#	244655
#	259646
#	274663
#	287810
#	300315
#
# Disc length: 4205 seconds
#
# Revision: 0
# Processed by: cddbd v1.5.2PL0 Copyright (c) Steve Scherf et al.
# Submitted via: EZCDAudioConverter 7.1.0.1
#
DISCID=2e106b15
DTITLE=Hott Country Volume 284 CAN
DYEAR=2019
DGENRE=country
TTITLE0=Jason Aldean - We Back
TTITLE1=Kelsea Ballerini - Homecoming Queen
TTITLE2=Brett Kissel - Drink About Me
TTITLE3=George Strait - The Weight Of The Badge
TTITLE4=Tenille Townes - Jersey On the Wall (I'm Just Asking)
TTITLE5=The Reklaws - Old Country Soul
TTITLE6=Little Big Town - Over Drinking
TTITLE7=Justin Moore - Why We Drink
TTITLE8=Aaron Pritchett - Good Thing
TTITLE9=Billy Ray Cyrus and Johnny McGuire - Chevys And Fords
TTITLE10=Craig Morgan - The Father, My Son And The Holy Ghost
TTITLE11=George Canyon - Vinyl
TTITLE12=Lauren Alaina - Getting Good
TTITLE13=Ashley McBryde - One Night Standards
TTITLE14=Eric Burgett - Swing Low, Sweet Old Cadillac
TTITLE15=Brea Lawrenson - The Radio
TTITLE16=Chris Labelle - Say Yeah
TTITLE17=Carly Pearce and Lee Brice - I Hope You're Happy Now
TTITLE18=Chris Buck Band - Holy Ground
TTITLE19=James Dupre - Another Love Song
TTITLE20=Samara Yung - Too Cool
EXTD=
EXTT0=
EXTT1=
EXTT2=
EXTT3=
EXTT4=
EXTT5=
EXTT6=
EXTT7=
EXTT8=
EXTT9=
EXTT10=
EXTT11=
EXTT12=
EXTT13=
EXTT14=
EXTT15=
EXTT16=
EXTT17=
EXTT18=
EXTT19=
EXTT20=
PLAYORDER=
